<?xml version="1.0" standalone="no"?>
<!DOCTYPE svg PUBLIC "-//W3C//DTD SVG 20010904//EN"
 "http://www.w3.org/TR/2001/REC-SVG-20010904/DTD/svg10.dtd">
<svg version="1.0" xmlns="http://www.w3.org/2000/svg"
 width="250.000000pt" height="250.000000pt" viewBox="0 0 250.000000 250.000000"
 preserveAspectRatio="xMidYMid meet">

<g transform="translate(0.000000,250.000000) scale(0.100000,-0.100000)"
fill="#000000" stroke="none">
<path d="M1457 2240 c-133 -34 -244 -157 -261 -290 -6 -44 -5 -46 38 -77 72
-53 156 -199 156 -274 0 -23 78 -44 155 -43 184 4 335 156 336 338 0 34 -3 75
-7 91 -22 92 -100 187 -190 231 -58 28 -165 39 -227 24z"/>
<path d="M870 1881 c-93 -30 -180 -104 -221 -188 -20 -41 -24 -63 -24 -148 0
-89 3 -106 28 -157 16 -33 49 -76 78 -102 174 -156 447 -102 546 109 24 52 28
72 28 150 0 108 -20 159 -91 235 -67 72 -137 103 -238 107 -45 1 -92 -1 -106
-6z"/>
<path d="M1382 1464 c-14 -75 -48 -148 -93 -199 -28 -32 -29 -35 -12 -41 150
-50 286 -189 333 -342 11 -35 23 -109 27 -163 l6 -99 47 0 c101 0 321 50 403
91 l37 19 0 178 c0 97 -5 206 -11 242 -20 131 -91 239 -202 311 -83 54 -161
69 -359 69 l-163 0 -13 -66z"/>
<path d="M703 1155 c-160 -43 -290 -179 -323 -338 -6 -31 -9 -137 -8 -257 l3
-205 126 -32 c204 -52 335 -66 544 -60 199 6 316 26 432 74 l68 29 3 194 c2
118 -1 219 -8 255 -33 169 -169 307 -338 344 -77 16 -434 13 -499 -4z"/>
</g>
</svg>
