<svg xmlns="http://www.w3.org/2000/svg" xmlns:xlink="http://www.w3.org/1999/xlink" width="500" zoomAndPan="magnify" viewBox="0 0 375 374.999991" height="500" preserveAspectRatio="xMidYMid meet" version="1.0"><defs><g/><clipPath id="dd9944ea30"><path d="M 130.027344 76.113281 L 244.777344 76.113281 L 244.777344 205.863281 L 130.027344 205.863281 Z M 130.027344 76.113281 " clip-rule="nonzero"/></clipPath></defs><g clip-path="url(#dd9944ea30)"><path fill="#f4f2f0" d="M 183.730469 98.566406 C 190.859375 103.101562 195.828125 110.65625 196.691406 119.292969 C 199.5 120.585938 202.742188 121.449219 206.199219 121.449219 C 218.726562 121.449219 228.882812 111.304688 228.882812 98.78125 C 228.882812 86.261719 218.726562 76.113281 206.199219 76.113281 C 193.882812 76.328125 183.730469 86.261719 183.730469 98.566406 Z M 168.820312 144.765625 C 181.351562 144.765625 191.507812 134.621094 191.507812 122.097656 C 191.507812 109.578125 181.351562 99.429688 168.820312 99.429688 C 156.292969 99.429688 146.136719 109.578125 146.136719 122.097656 C 146.136719 134.621094 156.292969 144.765625 168.820312 144.765625 Z M 178.328125 146.277344 L 159.101562 146.277344 C 143.113281 146.277344 130.148438 159.230469 130.148438 175.207031 L 130.148438 199.171875 L 131.664062 199.601562 C 146.785156 204.351562 160.179688 205.863281 170.984375 205.863281 C 192.15625 205.863281 204.46875 199.820312 205.332031 199.386719 L 206.847656 198.523438 L 207.0625 198.523438 L 207.0625 175.207031 C 207.277344 159.230469 194.316406 146.277344 178.328125 146.277344 Z M 215.703125 122.960938 L 196.691406 122.960938 C 196.476562 130.519531 193.234375 137.425781 188.050781 142.390625 C 202.308594 146.710938 212.679688 159.664062 212.679688 175.207031 L 212.679688 182.332031 C 231.476562 181.683594 242.277344 176.285156 242.925781 176.070312 L 244.4375 175.207031 L 244.652344 175.207031 L 244.652344 151.890625 C 244.652344 135.914062 231.691406 122.960938 215.703125 122.960938 Z M 215.703125 122.960938 " fill-opacity="1" fill-rule="nonzero"/></g><g fill="#f6a02f" fill-opacity="1"><g transform="translate(120.763139, 297.326817)"><g><path d="M 9.828125 -13.101562 L 8.683594 -13.101562 L 8.683594 -5.089844 L 8.734375 -2.050781 L 2.554688 -13.101562 L 1.242188 -13.101562 L 1.242188 0 L 2.386719 0 L 2.386719 -8.011719 L 2.316406 -11.054688 L 8.515625 0 L 9.828125 0 Z M 9.828125 -13.101562 "/></g></g></g><g fill="#f6a02f" fill-opacity="1"><g transform="translate(133.170637, 297.326817)"><g><path d="M 1.242188 -13.101562 L 1.242188 0 L 8.550781 0 L 8.550781 -1.09375 L 2.453125 -1.09375 L 2.453125 -6.148438 L 7.710938 -6.148438 L 7.710938 -7.222656 L 2.453125 -7.222656 L 2.453125 -12.011719 L 8.550781 -12.011719 L 8.550781 -13.101562 Z M 1.242188 -13.101562 "/></g></g></g><g fill="#f6a02f" fill-opacity="1"><g transform="translate(143.731418, 297.326817)"><g><path d="M 10.246094 0.132812 L 11.910156 0.132812 L 14.347656 -13.101562 L 13.070312 -13.101562 L 11.019531 -1.359375 L 8.332031 -13.101562 L 6.703125 -13.101562 L 4.015625 -1.359375 L 1.964844 -13.101562 L 0.6875 -13.101562 L 3.125 0.132812 L 4.789062 0.132812 L 7.507812 -11.792969 Z M 10.246094 0.132812 "/></g></g></g><g fill="#f6a02f" fill-opacity="1"><g transform="translate(160.100975, 297.326817)"><g/></g></g><g fill="#f6a02f" fill-opacity="1"><g transform="translate(164.802618, 297.326817)"><g><path d="M 2.199219 -6.214844 L 2.199219 -6.886719 C 2.199219 -10.617188 3.207031 -12.195312 5.390625 -12.195312 L 5.511719 -12.195312 C 7.476562 -12.195312 8.296875 -11.035156 8.296875 -8.332031 L 9.542969 -8.332031 L 9.542969 -8.800781 C 9.542969 -11.757812 8.199219 -13.289062 5.410156 -13.289062 C 2.402344 -13.289062 0.957031 -11.421875 0.957031 -6.886719 L 0.957031 -6.214844 C 0.957031 -1.679688 2.402344 0.183594 5.410156 0.183594 C 8.199219 0.183594 9.542969 -1.34375 9.542969 -4.097656 L 9.542969 -4.265625 L 8.296875 -4.265625 C 8.296875 -2.101562 7.476562 -0.90625 5.511719 -0.90625 L 5.390625 -0.90625 C 3.191406 -0.90625 2.199219 -2.484375 2.199219 -6.214844 Z M 2.199219 -6.214844 "/></g></g></g><g fill="#f6a02f" fill-opacity="1"><g transform="translate(176.521807, 297.326817)"><g><path d="M 5.441406 0.183594 C 8.449219 0.183594 9.945312 -1.679688 9.945312 -6.214844 L 9.945312 -6.886719 C 9.945312 -11.421875 8.449219 -13.289062 5.441406 -13.289062 C 2.453125 -13.289062 0.957031 -11.421875 0.957031 -6.886719 L 0.957031 -6.214844 C 0.957031 -1.679688 2.453125 0.183594 5.441406 0.183594 Z M 5.390625 -0.90625 C 3.191406 -0.90625 2.199219 -2.484375 2.199219 -6.214844 L 2.199219 -6.886719 C 2.199219 -10.617188 3.191406 -12.195312 5.390625 -12.195312 L 5.511719 -12.195312 C 7.710938 -12.195312 8.703125 -10.617188 8.703125 -6.886719 L 8.703125 -6.214844 C 8.703125 -2.484375 7.710938 -0.90625 5.511719 -0.90625 Z M 5.390625 -0.90625 "/></g></g></g><g fill="#f6a02f" fill-opacity="1"><g transform="translate(188.761423, 297.326817)"><g><path d="M 9.828125 -13.101562 L 8.683594 -13.101562 L 8.683594 -5.089844 L 8.734375 -2.050781 L 2.554688 -13.101562 L 1.242188 -13.101562 L 1.242188 0 L 2.386719 0 L 2.386719 -8.011719 L 2.316406 -11.054688 L 8.515625 0 L 9.828125 0 Z M 9.828125 -13.101562 "/></g></g></g><g fill="#f6a02f" fill-opacity="1"><g transform="translate(201.168917, 297.326817)"><g><path d="M 4.921875 -12.011719 L 8.265625 -12.011719 L 8.265625 -13.101562 L 0.386719 -13.101562 L 0.386719 -12.011719 L 3.710938 -12.011719 L 3.710938 0 L 4.921875 0 Z M 4.921875 -12.011719 "/></g></g></g><g fill="#f6a02f" fill-opacity="1"><g transform="translate(211.158893, 297.326817)"><g><path d="M 1.242188 -13.101562 L 1.242188 0 L 8.550781 0 L 8.550781 -1.09375 L 2.453125 -1.09375 L 2.453125 -6.148438 L 7.710938 -6.148438 L 7.710938 -7.222656 L 2.453125 -7.222656 L 2.453125 -12.011719 L 8.550781 -12.011719 L 8.550781 -13.101562 Z M 1.242188 -13.101562 "/></g></g></g><g fill="#f6a02f" fill-opacity="1"><g transform="translate(221.719675, 297.326817)"><g><path d="M 9.828125 -13.101562 L 8.683594 -13.101562 L 8.683594 -5.089844 L 8.734375 -2.050781 L 2.554688 -13.101562 L 1.242188 -13.101562 L 1.242188 0 L 2.386719 0 L 2.386719 -8.011719 L 2.316406 -11.054688 L 8.515625 0 L 9.828125 0 Z M 9.828125 -13.101562 "/></g></g></g><g fill="#f6a02f" fill-opacity="1"><g transform="translate(234.127174, 297.326817)"><g><path d="M 4.921875 -12.011719 L 8.265625 -12.011719 L 8.265625 -13.101562 L 0.386719 -13.101562 L 0.386719 -12.011719 L 3.710938 -12.011719 L 3.710938 0 L 4.921875 0 Z M 4.921875 -12.011719 "/></g></g></g><g fill="#f6a02f" fill-opacity="1"><g transform="translate(244.11715, 297.326817)"><g><path d="M 4.839844 -6.214844 C 7.121094 -5.894531 8.078125 -5.125 8.078125 -3.578125 L 8.078125 -3.425781 C 8.078125 -1.832031 6.886719 -0.90625 5.105469 -0.90625 L 4.988281 -0.90625 C 3.226562 -0.90625 1.980469 -1.964844 1.980469 -4.265625 L 0.773438 -4.265625 L 0.773438 -4.097656 C 0.773438 -1.394531 2.269531 0.183594 5.039062 0.183594 C 7.660156 0.183594 9.324219 -1.191406 9.324219 -3.511719 L 9.324219 -3.679688 C 9.324219 -5.695312 8.148438 -6.855469 5.292969 -7.238281 C 2.890625 -7.574219 2.167969 -8.398438 2.167969 -9.792969 L 2.167969 -9.929688 C 2.167969 -11.339844 3.375 -12.195312 4.972656 -12.195312 L 5.089844 -12.195312 C 7.089844 -12.195312 7.960938 -11.152344 7.960938 -8.667969 L 9.171875 -8.667969 L 9.171875 -9.070312 C 9.171875 -11.777344 7.960938 -13.289062 5.039062 -13.289062 C 2.554688 -13.289062 0.925781 -11.960938 0.925781 -9.777344 L 0.925781 -9.609375 C 0.925781 -7.878906 1.980469 -6.601562 4.839844 -6.214844 Z M 4.839844 -6.214844 "/></g></g></g><g fill="#ffffff" fill-opacity="1"><g transform="translate(112.993395, 273.00212)"><g><path d="M 2.9375 -45.847656 L 2.9375 0 L 19.394531 0 C 26.683594 0 35.265625 -1.585938 35.265625 -13.519531 L 35.265625 -14.695312 C 35.265625 -19.335938 33.210938 -22.101562 30.269531 -23.6875 C 32.5625 -25.273438 34.089844 -27.742188 34.089844 -31.621094 L 34.089844 -32.796875 C 34.089844 -44.316406 26.097656 -45.847656 19.101562 -45.847656 Z M 19.691406 -18.574219 C 21.511719 -18.574219 23.980469 -17.925781 23.980469 -14.339844 L 23.980469 -13.871094 C 23.980469 -10.285156 21.511719 -9.640625 19.691406 -9.640625 L 14.105469 -9.640625 L 14.105469 -18.574219 Z M 18.925781 -36.207031 C 20.570312 -36.207031 22.804688 -35.738281 22.804688 -32.5625 L 22.804688 -31.855469 C 22.804688 -28.683594 20.570312 -28.214844 18.925781 -28.214844 L 14.105469 -28.214844 L 14.105469 -36.207031 Z M 18.925781 -36.207031 "/></g></g></g><g fill="#ffffff" fill-opacity="1"><g transform="translate(150.904609, 273.00212)"><g><path d="M 30.269531 0 L 30.269531 -9.640625 L 14.105469 -9.640625 L 14.105469 -45.847656 L 2.9375 -45.847656 L 2.9375 0 Z M 30.269531 0 "/></g></g></g><g fill="#ffffff" fill-opacity="1"><g transform="translate(182.05647, 273.00212)"><g><path d="M 19.984375 0.824219 C 32.328125 0.824219 38.027344 -5.878906 38.027344 -21.746094 L 38.027344 -24.097656 C 38.027344 -39.96875 32.328125 -46.667969 19.984375 -46.667969 C 7.640625 -46.667969 1.941406 -39.96875 1.941406 -24.097656 L 1.941406 -21.746094 C 1.941406 -5.878906 7.640625 0.824219 19.984375 0.824219 Z M 19.691406 -8.816406 C 14.402344 -8.816406 13.285156 -13.8125 13.285156 -21.746094 L 13.285156 -24.097656 C 13.285156 -32.035156 14.402344 -37.03125 19.691406 -37.03125 L 20.277344 -37.03125 C 25.566406 -37.03125 26.683594 -32.035156 26.683594 -24.097656 L 26.683594 -21.746094 C 26.683594 -13.8125 25.566406 -8.816406 20.277344 -8.816406 Z M 19.691406 -8.816406 "/></g></g></g><g fill="#ffffff" fill-opacity="1"><g transform="translate(222.024882, 273.00212)"><g><path d="M 20.570312 0.824219 C 28.800781 0.824219 33.5625 -1.644531 37.265625 -4.585938 L 37.265625 -25.507812 L 20.570312 -25.507812 L 20.570312 -15.871094 L 26.097656 -15.871094 L 26.097656 -9.992188 C 24.746094 -9.226562 22.921875 -8.816406 20.867188 -8.816406 L 20.277344 -8.816406 C 14.105469 -8.816406 13.285156 -13.8125 13.285156 -21.746094 L 13.285156 -24.097656 C 13.285156 -32.035156 14.105469 -37.03125 19.984375 -37.03125 L 20.570312 -37.03125 C 25.273438 -37.03125 26.15625 -33.503906 26.15625 -28.214844 L 37.324219 -28.214844 L 37.324219 -30.503906 C 37.324219 -42.320312 31.210938 -46.667969 19.984375 -46.667969 C 7.640625 -46.667969 1.941406 -39.96875 1.941406 -24.097656 L 1.941406 -21.746094 C 1.941406 -5.878906 7.640625 0.824219 20.570312 0.824219 Z M 20.570312 0.824219 "/></g></g></g></svg>